<?xml version="1.0" encoding="utf-8"?>
<!-- Generator: Adobe Illustrator 17.0.0, SVG Export Plug-In . SVG Version: 6.00 Build 0)  -->
<!DOCTYPE svg PUBLIC "-//W3C//DTD SVG 1.1//EN" "http://www.w3.org/Graphics/SVG/1.1/DTD/svg11.dtd">
<svg version="1.1" id="Layer_1" xmlns="http://www.w3.org/2000/svg" xmlns:xlink="http://www.w3.org/1999/xlink" x="0px" y="0px"
	 width="256px" height="256px" viewBox="0 0 256 256" enable-background="new 0 0 256 256" xml:space="preserve">
<rect y="0" fill="#616161" width="256.715" height="256.715"/>
<path fill="#747474" d="M170.074,0c0,0-9.627,34.657-12.194,51.985s-14.975,77.014-96.91,91.776c0,0-53.268,4.493-60.97,10.91V0
	L170.074,0z"/>
<path fill="#565656" d="M256.715,108.676c0,0-22.676,9.413-42.358,11.98c-37.698,4.917-88.995-14.547-112.955,87.283
	c0,0-3.851,41.074-12.194,48.776h167.507V108.676z"/>
<text transform="matrix(1 0 0 1 18.5464 190.1221)" fill="#FFFFFF" font-family="'Poppins-SemiBold'" font-size="175.539">KT</text>
<line fill="none" x1="-8018.5" y1="-144" x2="8364.5" y2="-144"/>
</svg>
